HIERARCHY
ROOT Root
{
  OFFSET 0.0 0.0 0.0
  CHANNELS 6 Xposition Yposition Zposition Zrotation Yrotation Xrotation
  JOINT Hips
  {
    OFFSET 0.0 100.0 0.0
    CHANNELS 6 Xposition Yposition Zposition Zrotation Yrotation Xrotation
    JOINT Spine1
    {
      OFFSET -0.013727 5.003763 -0.053727
      CHANNELS 3 Zrotation Yrotation Xrotation
      JOINT Spine2
      {
        OFFSET -0.0 7.125301 -0.029825
        CHANNELS 3 Zrotation Yrotation Xrotation
        JOINT Chest
        {
          OFFSET -1e-06 7.550063 -0.815971
          CHANNELS 3 Zrotation Yrotation Xrotation
          JOINT Neck1
          {
            OFFSET -0.181677 26.311295 -0.553348
            CHANNELS 3 Zrotation Yrotation Xrotation
            JOINT Neck2
            {
              OFFSET -3e-06 7.709397 2.302585
              CHANNELS 3 Zrotation Yrotation Xrotation
              JOINT Head
              {
                OFFSET -5e-06 6.128916 1.953709
                CHANNELS 3 Zrotation Yrotation Xrotation
                JOINT HeadEnd
                {
                  OFFSET 0.003598 16.065403 -1.835379
                  CHANNELS 3 Zrotation Yrotation Xrotation
                }
                JOINT Jaw
                {
                  OFFSET 0.002637 0.475592 3.094941
                  CHANNELS 3 Zrotation Yrotation Xrotation
                }
                JOINT LeftEye
                {
                  OFFSET 3.206381 5.380205 7.586883
                  CHANNELS 3 Zrotation Yrotation Xrotation
                }
                JOINT RightEye
                {
                  OFFSET -3.22244 5.361869 7.558234
                  CHANNELS 3 Zrotation Yrotation Xrotation
                }
              }
            }
          }
          JOINT LeftShoulder
          {
            OFFSET 1.621652 23.237164 5.113413
            CHANNELS 3 Zrotation Yrotation Xrotation
            JOINT LeftArm
            {
              OFFSET 14.919846 2e-06 -5.502326
              CHANNELS 3 Zrotation Yrotation Xrotation
              JOINT LeftForeArm
              {
                OFFSET 28.739307 0.0 -0.002588
                CHANNELS 3 Zrotation Yrotation Xrotation
                JOINT LeftHand
                {
                  OFFSET 27.093981 -1e-06 0.002609
                  CHANNELS 3 Zrotation Yrotation Xrotation
                  JOINT LeftHandThumb1
                  {
                    OFFSET 2.276482 -1.392045 3.191413
                    CHANNELS 3 Zrotation Yrotation Xrotation
                    JOINT LeftHandThumb2
                    {
                      OFFSET 4.012836 -1.828127 1.641654
                      CHANNELS 3 Zrotation Yrotation Xrotation
                      JOINT LeftHandThumb3
                      {
                        OFFSET 2.798515 0.0 -3e-06
                        CHANNELS 3 Zrotation Yrotation Xrotation
                        JOINT LeftHandThumbEnd
                        {
                          OFFSET 3.180793 -4e-06 4e-06
                          CHANNELS 3 Zrotation Yrotation Xrotation
                        }
                      }
                    }
                  }
                  JOINT LeftHandIndex1
                  {
                    OFFSET 3.247555 -0.531998 2.296169
                    CHANNELS 3 Zrotation Yrotation Xrotation
                    JOINT LeftHandIndex2
                    {
                      OFFSET 6.364578 0.01206 0.1786
                      CHANNELS 3 Zrotation Yrotation Xrotation
                      JOINT LeftHandIndex3
                      {
                        OFFSET 3.662364 0.0 0.0
                        CHANNELS 3 Zrotation Yrotation Xrotation
                        JOINT LeftHandIndex4
                        {
                          OFFSET 2.329242 4e-06 4e-06
                          CHANNELS 3 Zrotation Yrotation Xrotation
                          JOINT LeftHandIndexEnd
                          {
                            OFFSET 2.759615 -0.180537 -0.113024
                            CHANNELS 3 Zrotation Yrotation Xrotation
                          }
                        }
                      }
                    }
                  }
                  JOINT LeftHandMiddle1
                  {
                    OFFSET 3.163495 0.240981 1.000332
                    CHANNELS 3 Zrotation Yrotation Xrotation
                    JOINT LeftHandMiddle2
                    {
                      OFFSET 6.19078 -0.259278 -1.002548
                      CHANNELS 3 Zrotation Yrotation Xrotation
                      JOINT LeftHandMiddle3
                      {
                        OFFSET 4.35652 -4e-06 -1e-06
                        CHANNELS 3 Zrotation Yrotation Xrotation
                        JOINT LeftHandMiddle4
                        {
                          OFFSET 2.996877 -8e-06 0.0
                          CHANNELS 3 Zrotation Yrotation Xrotation
                          JOINT LeftHandMiddleEnd
                          {
                            OFFSET 2.304287 -0.294569 -0.031741
                            CHANNELS 3 Zrotation Yrotation Xrotation
                          }
                        }
                      }
                    }
                  }
                  JOINT LeftHandRing1
                  {
                    OFFSET 2.882643 -0.053652 -0.322543
                    CHANNELS 3 Zrotation Yrotation Xrotation
                    JOINT LeftHandRing2
                    {
                      OFFSET 5.854541 -0.486202 -1.373841
                      CHANNELS 3 Zrotation Yrotation Xrotation
                      JOINT LeftHandRing3
                      {
                        OFFSET 4.350578 0.0 3e-06
                        CHANNELS 3 Zrotation Yrotation Xrotation
                        JOINT LeftHandRing4
                        {
                          OFFSET 2.651321 7e-06 2e-06
                          CHANNELS 3 Zrotation Yrotation Xrotation
                          JOINT LeftHandRingEnd
                          {
                            OFFSET 1.936105 0.077687 -7.1e-05
                            CHANNELS 3 Zrotation Yrotation Xrotation
                          }
                        }
                      }
                    }
                  }
                  JOINT LeftHandPinky1
                  {
                    OFFSET 2.8655 -0.310005 -1.600378
                    CHANNELS 3 Zrotation Yrotation Xrotation
                    JOINT LeftHandPinky2
                    {
                      OFFSET 5.087849 -1.331141 -1.77123
                      CHANNELS 3 Zrotation Yrotation Xrotation
                      JOINT LeftHandPinky3
                      {
                        OFFSET 3.070974 4e-06 0.0
                        CHANNELS 3 Zrotation Yrotation Xrotation
                        JOINT LeftHandPinky4
                        {
                          OFFSET 1.549672 0.0 1e-06
                          CHANNELS 3 Zrotation Yrotation Xrotation
                          JOINT LeftHandPinkyEnd
                          {
                            OFFSET 1.944893 -0.157802 0.057219
                            CHANNELS 3 Zrotation Yrotation Xrotation
                          }
                        }
                      }
                    }
                  }
                }
              }
            }
          }
          JOINT RightShoulder
          {
            OFFSET -1.380118 23.180309 5.214158
            CHANNELS 3 Zrotation Yrotation Xrotation
            JOINT RightArm
            {
              OFFSET -15.037196 1.2e-05 -5.545604
              CHANNELS 3 Zrotation Yrotation Xrotation
              JOINT RightForeArm
              {
                OFFSET -28.736639 2e-06 -0.002597
                CHANNELS 3 Zrotation Yrotation Xrotation
                JOINT RightHand
                {
                  OFFSET -27.133619 -0.0 0.002613
                  CHANNELS 3 Zrotation Yrotation Xrotation
                  JOINT RightHandThumb1
                  {
                    OFFSET -2.274032 -1.383988 3.163127
                    CHANNELS 3 Zrotation Yrotation Xrotation
                    JOINT RightHandThumb2
                    {
                      OFFSET -4.011429 -1.827466 1.640914
                      CHANNELS 3 Zrotation Yrotation Xrotation
                      JOINT RightHandThumb3
                      {
                        OFFSET -2.794935 -4e-06 -3e-06
                        CHANNELS 3 Zrotation Yrotation Xrotation
                        JOINT RightHandThumbEnd
                        {
                          OFFSET -3.183852 4e-06 1e-06
                          CHANNELS 3 Zrotation Yrotation Xrotation
                        }
                      }
                    }
                  }
                  JOINT RightHandIndex1
                  {
                    OFFSET -3.253266 -0.520057 2.282866
                    CHANNELS 3 Zrotation Yrotation Xrotation
                    JOINT RightHandIndex2
                    {
                      OFFSET -6.341917 0.012471 0.178266
                      CHANNELS 3 Zrotation Yrotation Xrotation
                      JOINT RightHandIndex3
                      {
                        OFFSET -3.654871 -8e-06 -0.0
                        CHANNELS 3 Zrotation Yrotation Xrotation
                        JOINT RightHandIndex4
                        {
                          OFFSET -2.327586 0.0 1e-06
                          CHANNELS 3 Zrotation Yrotation Xrotation
                          JOINT RightHandIndexEnd
                          {
                            OFFSET -2.76179 -0.180656 -0.113078
                            CHANNELS 3 Zrotation Yrotation Xrotation
                          }
                        }
                      }
                    }
                  }
                  JOINT RightHandMiddle1
                  {
                    OFFSET -3.168106 0.246593 1.00103
                    CHANNELS 3 Zrotation Yrotation Xrotation
                    JOINT RightHandMiddle2
                    {
                      OFFSET -6.180828 -0.258836 -1.000895
                      CHANNELS 3 Zrotation Yrotation Xrotation
                      JOINT RightHandMiddle3
                      {
                        OFFSET -4.348901 0.0 -0.0
                        CHANNELS 3 Zrotation Yrotation Xrotation
                        JOINT RightHandMiddle4
                        {
                          OFFSET -3.00024 -4e-06 -2e-06
                          CHANNELS 3 Zrotation Yrotation Xrotation
                          JOINT RightHandMiddleEnd
                          {
                            OFFSET -2.30252 -0.29437 -0.031706
                            CHANNELS 3 Zrotation Yrotation Xrotation
                          }
                        }
                      }
                    }
                  }
                  JOINT RightHandRing1
                  {
                    OFFSET -2.88569 -0.067952 -0.308858
                    CHANNELS 3 Zrotation Yrotation Xrotation
                    JOINT RightHandRing2
                    {
                      OFFSET -5.854198 -0.48613 -1.373731
                      CHANNELS 3 Zrotation Yrotation Xrotation
                      JOINT RightHandRing3
                      {
                        OFFSET -4.33881 -4e-06 -0.0
                        CHANNELS 3 Zrotation Yrotation Xrotation
                        JOINT RightHandRing4
                        {
                          OFFSET -2.654903 -4e-06 4e-06
                          CHANNELS 3 Zrotation Yrotation Xrotation
                          JOINT RightHandRingEnd
                          {
                            OFFSET -1.933568 0.077527 -5.2e-05
                            CHANNELS 3 Zrotation Yrotation Xrotation
                          }
                        }
                      }
                    }
                  }
                  JOINT RightHandPinky1
                  {
                    OFFSET -2.866425 -0.342796 -1.584145
                    CHANNELS 3 Zrotation Yrotation Xrotation
                    JOINT RightHandPinky2
                    {
                      OFFSET -5.091371 -1.332055 -1.772385
                      CHANNELS 3 Zrotation Yrotation Xrotation
                      JOINT RightHandPinky3
                      {
                        OFFSET -3.062664 -4e-06 1e-06
                        CHANNELS 3 Zrotation Yrotation Xrotation
                        JOINT RightHandPinky4
                        {
                          OFFSET -1.546529 4e-06 -2e-06
                          CHANNELS 3 Zrotation Yrotation Xrotation
                          JOINT RightHandPinkyEnd
                          {
                            OFFSET -1.945119 -0.157718 0.057211
                            CHANNELS 3 Zrotation Yrotation Xrotation
                          }
                        }
                      }
                    }
                  }
                }
              }
            }
          }
        }
      }
    }
    JOINT LeftLeg
    {
      OFFSET 10.043214 -8.434526 2.595655
      CHANNELS 3 Zrotation Yrotation Xrotation
      JOINT LeftShin
      {
        OFFSET -1e-06 -43.221752 -0.802913
        CHANNELS 3 Zrotation Yrotation Xrotation
        JOINT LeftFoot
        {
          OFFSET 1e-06 -42.155094 -3.481523
          CHANNELS 3 Zrotation Yrotation Xrotation
          JOINT LeftToeBase
          {
            OFFSET 0.0 -5.059472 13.231529
            CHANNELS 3 Zrotation Yrotation Xrotation
            JOINT LeftToeEnd
            {
              OFFSET -0.009607 -1.647619 6.513017
              CHANNELS 3 Zrotation Yrotation Xrotation
            }
          }
        }
      }
    }
    JOINT RightLeg
    {
      OFFSET -10.047278 -8.29526 2.620317
      CHANNELS 3 Zrotation Yrotation Xrotation
      JOINT RightShin
      {
        OFFSET 1e-06 -43.362206 -0.805556
        CHANNELS 3 Zrotation Yrotation Xrotation
        JOINT RightFoot
        {
          OFFSET 2e-06 -42.117393 -3.478398
          CHANNELS 3 Zrotation Yrotation Xrotation
          JOINT RightToeBase
          {
            OFFSET -0.0 -5.079609 13.284196
            CHANNELS 3 Zrotation Yrotation Xrotation
            JOINT RightToeEnd
            {
              OFFSET 0.009532 -1.634378 6.460591
              CHANNELS 3 Zrotation Yrotation Xrotation
            }
          }
        }
      }
    }
  }
}
MOTION
Frames: 4
Frame Time: 0.03333333333333333
0.624071 0.0 -5.037926 0.0 0.135302 0.0 0.0 100.067734 0.0 0.027176 0.000682 -1.357101 0.666861 -0.105603 3.035851 -0.424885 -0.858014 -4.297961 -2.779557 -2.968528 12.259293 -4.533395 5.9772 17.131153 -0.034088 3.537034 -3.80626 2.232628 2.358057 -9.751194 7.7e-05 -2.3e-05 6e-06 -0.013865 0.069521 -0.077701 0.705153 -3.661968 -10.724154 -0.735222 3.820525 -10.781536 -20.984018 -2.028572 18.098389 -64.782181 15.487895 -29.992935 2.056743 -61.215073 -0.710091 28.595825 -8.930636 5.216487 -5.882106 9.86129 0.702593 -10.936873 -0.360575 7.156209 1e-06 8.77483 0.0 -16.754951 18.494411 6.21794 -1.844034 2.498505 -2.507278 -10.1636 4.678946 4.621111 -20.976027 -2e-06 5e-06 -21.226288 2.451698 -3.593998 0.0 -5e-06 -0.0 -1.36268 2.240798 -0.746322 -21.334919 0.584909 3.008326 -13.821215 -1e-06 3e-06 -23.887175 -0.249077 -0.839481 -61.038914 2.881562 -1.321558 -0.294027 1.679688 0.833257 -14.21821 0.093216 1.300582 -34.212051 -0.287562 0.967174 -20.033215 0.964539 1.212845 0.0 0.0 -1e-06 -3.440391 0.788233 0.501657 -15.928189 -3.167312 2.999709 -6.338827 -1e-06 2e-06 -18.123447 3.648185 -4.905669 -3e-06 -1e-06 -2e-06 20.527731 2.594089 18.997478 59.900166 -4.6545 -11.272962 -1.379355 35.399231 -0.455553 -10.857232 -8.181243 0.25066 2.243543 -5.255039 -3.180158 14.282896 -0.826595 6.952506 -3e-06 -12.690612 2e-06 15.966616 -17.796349 2.921504 1.665665 -1.955922 -2.878299 4.7278 -4.17059 4.993926 11.020531 4e-06 -0.0 12.109058 -3.735718 -2.866784 0.0 -0.0 0.0 1.291986 -1.92855 -1.498089 14.800132 0.567468 3.865609 14.242577 -1.341737 -6.660659 19.631973 0.143927 -0.648244 49.406918 -0.31088 -6.40779 0.35303 -1.511151 -0.03194 20.222799 3.684313 2.316631 18.787283 5e-06 0.0 10.751633 -0.479869 1.397907 1e-06 0.0 0.0 3.273808 0.305947 -0.580111 21.48682 11.830384 2.266134 8.16293 2e-06 -0.0 18.399086 -3.798989 -4.940577 3e-06 0.0 -1e-06 4.261028 5.629567 2.306512 -0.00596 -0.20919 4.385753 -6.089987 -2.129921 -5.116426 1.657359 -1.948754 -1.307951 0.0 0.0 2e-06 -5.319473 -5.414989 3.403255 -0.021588 0.079018 2.269197 4.600895 -5.790074 -3.887339 -1.416825 0.915693 -0.589019 0.0 0.0 -1e-06 
0.746885 0.0 -4.925615 0.0 0.185061 0.0 0.0 100.029373 0.0 0.034123 0.00121 -1.866686 0.732929 -0.117262 2.96758 -0.396912 -0.726226 -4.361896 -2.959908 -2.907733 12.453665 -4.779451 6.365689 17.858458 -0.043951 3.187412 -3.795347 2.289621 2.076802 -9.388859 7.7e-05 -2.2e-05 5e-06 -0.031506 0.109388 -0.079112 0.676429 -3.61932 -10.732814 -0.742781 3.858137 -10.789597 -21.528772 -1.73929 18.21991 -65.041916 15.376841 -29.190466 1.688171 -62.813072 -0.634801 29.563917 -10.890776 6.8966 -5.882107 9.861288 0.702592 -10.936873 -0.360574 7.156207 1e-06 8.774828 -1e-06 -16.897747 18.51782 6.057006 -1.844032 2.498505 -2.507277 -10.163604 4.678946 4.621109 -20.976027 -2e-06 3e-06 -21.226292 2.451698 -3.594 0.0 -5e-06 -0.0 -1.362681 2.240798 -0.746323 -21.334919 0.584908 3.008325 -13.821217 -2e-06 3e-06 -23.887175 -0.249077 -0.839482 -61.161858 2.819348 -1.36603 -0.294026 1.679687 0.833255 -14.218209 0.093214 1.300582 -34.212051 -0.287561 0.967173 -20.033215 0.964537 1.212844 0.0 0.0 -1e-06 -3.440389 0.788233 0.501656 -15.928187 -3.16731 2.999708 -6.338828 -2e-06 2e-06 -18.123451 3.648185 -4.90567 -4e-06 -2e-06 -2e-06 20.425598 2.409025 19.162945 59.737717 -4.572694 -11.918011 -1.21759 35.272949 -0.391974 -11.692899 -7.843733 -1.076731 2.243542 -5.255037 -3.180158 14.282894 -0.826596 6.952504 -4e-06 -12.690607 2e-06 16.010309 -17.871452 2.935581 1.665665 -1.955921 -2.878299 4.7278 -4.170589 4.993926 11.020528 2e-06 -1e-06 12.109055 -3.735715 -2.866785 0.0 1e-06 0.0 1.291985 -1.92855 -1.498089 14.800131 0.567468 3.865608 14.242573 -1.341735 -6.660659 19.631969 0.143927 -0.648245 49.562939 -0.298407 -6.34488 0.353028 -1.511151 -0.03194 20.222794 3.68431 2.31663 18.787273 4e-06 -1e-06 10.751629 -0.479869 1.397906 -0.0 -0.0 -0.0 3.273808 0.305947 -0.580111 21.486816 11.830378 2.266132 8.162928 2e-06 -0.0 18.399082 -3.798987 -4.940576 2e-06 -0.0 -1e-06 4.223308 5.421812 2.907691 -0.015283 -0.23603 4.446846 -5.904201 -2.100211 -5.279555 1.659193 -2.034588 -1.368447 -0.0 0.0 2e-06 -5.41691 -5.224894 4.140142 -0.029792 0.068674 2.091722 4.534691 -5.972407 -3.894255 -1.42784 0.884091 -0.569335 -0.0 0.0 -1e-06 
0.842378 0.0 -4.804549 0.0 0.224039 0.0 0.0 99.994019 0.0 0.057637 0.002469 -2.277306 0.762438 -0.12176 2.859444 -0.379564 -0.626499 -4.427278 -3.109524 -2.833645 12.63904 -5.01274 6.728847 18.547876 -0.086097 2.913152 -3.812576 2.398068 1.81705 -9.027825 7.7e-05 -2.3e-05 6e-06 -0.038814 0.129238 -0.078609 0.659618 -3.594045 -10.740077 -0.741315 3.872255 -10.786019 -21.950251 -1.436445 18.307964 -65.158508 15.287358 -28.295633 1.660599 -63.900616 -0.863056 29.94595 -12.221801 8.080029 -5.88211 9.861291 0.70259 -10.936881 -0.360576 7.156211 2e-06 8.774831 -1e-06 -16.908569 18.524832 5.986337 -1.844034 2.498506 -2.507279 -10.163606 4.678946 4.621112 -20.97604 -3e-06 2e-06 -21.226301 2.451697 -3.594002 0.0 -5e-06 -0.0 -1.362684 2.240798 -0.746324 -21.334929 0.584909 3.008326 -13.821223 -2e-06 2e-06 -23.887184 -0.24908 -0.839482 -61.178379 2.783542 -1.465615 -0.294024 1.679688 0.833256 -14.218217 0.093212 1.300582 -34.21207 -0.287562 0.967171 -20.033226 0.964537 1.212846 -0.0 -0.0 -1e-06 -3.440392 0.788233 0.501655 -15.928196 -3.167312 2.999709 -6.338829 -2e-06 2e-06 -18.123459 3.648183 -4.905673 -4e-06 -2e-06 -2e-06 20.326572 2.270286 19.2901 59.600395 -4.522887 -12.481513 -0.973241 35.268578 -0.334261 -12.311101 -7.374487 -2.152273 2.243543 -5.255041 -3.18016 14.282902 -0.826595 6.952507 -2e-06 -12.690616 0.0 16.027536 -17.900904 2.923597 1.665667 -1.955923 -2.8783 4.727805 -4.170591 4.993927 11.020536 2e-06 -2e-06 12.109062 -3.735719 -2.866787 0.0 0.0 -0.0 1.291987 -1.928551 -1.49809 14.800139 0.567468 3.86561 14.242584 -1.341737 -6.660663 19.631985 0.143926 -0.648246 49.614475 -0.265782 -6.328722 0.35303 -1.511152 -0.03194 20.222805 3.684312 2.316631 18.787287 4e-06 -2e-06 10.751636 -0.479869 1.397906 -0.0 0.0 0.0 3.27381 0.305947 -0.580111 21.486832 11.830384 2.266133 8.162933 1e-06 -1e-06 18.399099 -3.798988 -4.94058 1e-06 0.0 -1e-06 4.164437 5.205237 3.438979 -0.013305 -0.240332 4.43862 -5.727055 -2.030825 -5.407086 1.658619 -2.101073 -1.349103 0.0 -0.0 2e-06 -5.541937 -5.167202 4.739048 -0.02659 0.071661 1.974212 4.541768 -6.088329 -3.932577 -1.430895 0.868969 -0.51512 0.0 0.0 -1e-06 
0.879706 0.0 -4.719869 0.0 0.26389 0.0 0.0 99.964577 0.0 0.071484 0.003419 -2.532237 0.752142 -0.121161 2.759674 -0.375835 -0.555424 -4.484549 -3.199867 -2.765973 12.762074 -5.187466 6.966649 19.024689 -0.110867 2.784685 -3.83768 2.46588 1.677369 -8.817795 7.7e-05 -2.2e-05 6e-06 -0.040201 0.134277 -0.075047 0.653511 -3.58508 -10.738809 -0.738041 3.87196 -10.776215 -22.150753 -1.201964 18.333862 -65.097237 15.219007 -27.474653 1.74326 -64.12056 -1.039765 30.009325 -12.721189 9.042045 -5.882109 9.861291 0.702589 -10.936877 -0.360573 7.156208 3e-06 8.774829 -1e-06 -16.872101 18.490669 5.972392 -1.844032 2.498505 -2.507279 -10.163604 4.678947 4.621111 -20.976034 -2e-06 0.0 -21.226297 2.451698 -3.594004 0.0 -6e-06 -0.0 -1.362683 2.2408 -0.746323 -21.334923 0.584912 3.008324 -13.821218 -2e-06 2e-06 -23.887178 -0.249079 -0.839486 -61.184589 2.790061 -1.507054 -0.294027 1.679688 0.833255 -14.218212 0.093215 1.30058 -34.212067 -0.287563 0.967168 -20.033222 0.964537 1.212841 -0.0 -1e-06 0.0 -3.440387 0.788234 0.501657 -15.928192 -3.16731 2.99971 -6.338829 -2e-06 2e-06 -18.123457 3.648187 -4.905674 -4e-06 -0.0 -1e-06 20.171677 2.197212 19.366526 59.588341 -4.49976 -12.562135 -0.910396 35.514343 -0.320455 -12.538492 -7.032707 -2.619486 2.243543 -5.255038 -3.180158 14.282898 -0.826596 6.952505 -3e-06 -12.69061 3e-06 16.021564 -17.948837 2.944472 1.665668 -1.955922 -2.878299 4.727802 -4.17059 4.993926 11.020535 3e-06 -1e-06 12.109058 -3.735717 -2.866784 0.0 0.0 -0.0 1.291986 -1.92855 -1.498089 14.800139 0.567468 3.865608 14.242582 -1.341736 -6.66066 19.631983 0.143927 -0.648245 49.687355 -0.275477 -6.330783 0.353029 -1.511151 -0.03194 20.222803 3.684311 2.31663 18.787287 5e-06 -1e-06 10.751634 -0.479869 1.397906 -0.0 0.0 0.0 3.273808 0.305947 -0.580111 21.486824 11.830381 2.266131 8.16293 1e-06 -1e-06 18.399092 -3.798986 -4.940577 1e-06 0.0 -1e-06 4.126711 5.051866 3.731217 -0.007564 -0.240661 4.516843 -5.613834 -1.948071 -5.541761 1.656857 -2.1102 -1.300241 -0.0 0.0 2e-06 -5.639119 -5.206616 5.104058 -0.020808 0.069922 1.941229 4.593749 -6.06951 -3.997521 -1.429441 0.870938 -0.482186 -0.0 0.0 -1e-06 
